<svg xmlns="http://www.w3.org/2000/svg" width="640" height="320" viewBox="0 0 640 320" role="img" aria-label="A* grid path">
  <rect width="640" height="320" fill="#ffffff"/>
  <g stroke="#e5e7eb">
    <!-- grid -->
    <g>
      <!-- vertical lines -->
      <path d="M40,40 V280"/><path d="M80,40 V280"/><path d="M120,40 V280"/><path d="M160,40 V280"/>
      <path d="M200,40 V280"/><path d="M240,40 V280"/><path d="M280,40 V280"/><path d="M320,40 V280"/>
      <path d="M360,40 V280"/><path d="M400,40 V280"/><path d="M440,40 V280"/><path d="M480,40 V280"/>
      <path d="M520,40 V280"/><path d="M560,40 V280"/><path d="M600,40 V280"/>
      <!-- horizontal lines -->
      <path d="M40,40 H600"/><path d="M40,80 H600"/><path d="M40,120 H600"/><path d="M40,160 H600"/>
      <path d="M40,200 H600"/><path d="M40,240 H600"/><path d="M40,280 H600"/>
    </g>
  </g>
  <!-- start and goal -->
  <circle cx="60" cy="60" r="10" fill="#16a34a"/>
  <text x="75" y="64" font-size="12" fill="#16a34a" font-family="system-ui">Start</text>
  <rect x="560" y="240" width="20" height="20" fill="#ef4444"/>
  <text x="520" y="255" font-size="12" fill="#ef4444" font-family="system-ui">Goal</text>
  <!-- walls -->
  <g fill="#9ca3af">
    <rect x="200" y="40" width="40" height="200"/>
    <rect x="360" y="120" width="160" height="40"/>
  </g>
  <!-- path -->
  <polyline fill="none" stroke="#3b82f6" stroke-width="4"
            points="60,60 100,60 140,60 180,60 180,100 180,140 180,180 220,180 260,180 300,180 340,180 340,220 380,220 420,220 460,220 500,220 540,220 560,240"/>
  <!-- legend -->
  <g transform="translate(40,300)">
    <circle cx="0" cy="0" r="6" fill="#16a34a"/><text x="12" y="4" font-size="12" font-family="system-ui">Départ</text>
    <rect x="90" y="-8" width="12" height="12" fill="#ef4444"/><text x="106" y="4" font-size="12" font-family="system-ui">But</text>
    <rect x="170" y="-8" width="12" height="12" fill="#9ca3af"/><text x="186" y="4" font-size="12" font-family="system-ui">Obstacle</text>
    <line x1="260" y1="0" x2="272" y2="0" stroke="#3b82f6" stroke-width="4"/><text x="280" y="4" font-size="12" font-family="system-ui">Chemin A*</text>
  </g>
</svg>
