<svg xmlns="http://www.w3.org/2000/svg" width="760" height="220" viewBox="0 0 760 220" role="img"><title>MLOps Pipeline</title><rect width="760" height="220" fill="#f8fafc"/><g fill="#ffffff" stroke="#9ca3af"><rect x="40" y="60" width="100" height="60" rx="8"/><rect x="170" y="60" width="100" height="60" rx="8"/><rect x="300" y="60" width="100" height="60" rx="8"/><rect x="430" y="60" width="100" height="60" rx="8"/><rect x="560" y="60" width="100" height="60" rx="8"/><rect x="690" y="60" width="30" height="60" rx="8"/></g><g stroke="#2563eb"><path d="M140 90 L 170 90"/><path d="M270 90 L 300 90"/><path d="M400 90 L 430 90"/><path d="M530 90 L 560 90"/><path d="M660 90 L 690 90"/></g><g font-size="12"><text x="55" y="95">Data</text><text x="182" y="95">Train</text><text x="308" y="95">Eval</text><text x="440" y="95">Deploy</text><text x="573" y="95">Monitor</text><text x="695" y="95">Drift</text></g></svg>
